Coordinates
version=1
nRows=7
nColumns=40
inDegrees=yes

Units are S.I. units (second, meters, Newtons, ...)
Angles are in degrees.

endheader
time	pelvis_tilt	pelvis_list	pelvis_rotation	pelvis_tx	pelvis_ty	pelvis_tz	hip_flexion_r	hip_adduction_r	hip_rotation_r	knee_angle_r	knee_angle_r_beta	ankle_angle_r	subtalar_angle_r	mtp_angle_r	hip_flexion_l	hip_adduction_l	hip_rotation_l	knee_angle_l	knee_angle_l_beta	ankle_angle_l	subtalar_angle_l	mtp_angle_l	lumbar_extension	lumbar_bending	lumbar_rotation	arm_flex_r	arm_add_r	arm_rot_r	elbow_flex_r	pro_sup_r	wrist_flex_r	wrist_dev_r	arm_flex_l	arm_add_l	arm_rot_l	elbow_flex_l	pro_sup_l	wrist_flex_l	wrist_dev_l
      1.43000000	     -0.35574590	      9.22344214	    -83.08352621	      0.59089723	      0.98298865	     -0.19383027	     12.21286530	     -5.81700103	    -12.84784317	     10.67529939	      0.18631912	      3.82064138	      0.00000000	      0.00000000	     16.29240263	     -4.65201474	     -2.13796332	     13.43087500	      0.23441299	      2.80966074	      0.00000000	      0.00000000	      2.35386767	     -2.85817748	     -6.61883993	    -49.62039866	    -68.70250341	    -16.81071838	    106.57365328	     46.47685790	      0.00000000	      0.00000000	    -15.79720046	    -86.10612248	      9.55848238	    107.53801145	     46.09448219	      0.00000000	      0.00000000
      1.44000000	     -0.33456562	      9.34016568	    -83.18089489	      0.59057604	      0.98274607	     -0.19267939	     12.14288952	     -5.76556606	    -12.66485111	     10.39521721	      0.18143077	      3.89876430	      0.00000000	      0.00000000	     16.05892209	     -4.64513591	     -2.48660042	     12.94339299	      0.22590482	      3.09106398	      0.00000000	      0.00000000	      2.63207776	     -2.91002436	     -6.50819653	    -49.93777099	    -68.72720674	    -16.56898890	    106.81440635	     46.48390587	      0.00000000	      0.00000000	    -16.09238153	    -86.16041263	      9.82931515	    107.77936015	     46.09812782	      0.00000000	      0.00000000
      1.45000000	     -0.61423900	      9.57768547	    -82.09391540	      0.59242664	      0.98270094	     -0.19522447	     12.76357229	     -5.84202636	    -12.72059649	     11.37695826	      0.19856538	      3.52960356	      0.00000000	      0.00000000	     17.35207504	     -4.60104180	     -1.95779034	     14.12059899	      0.24645094	      2.57113807	      0.00000000	      0.00000000	      2.52400126	     -2.66059424	     -7.53483913	    -48.95250908	    -68.04986757	    -16.36046658	    106.15365010	     46.41310306	      0.00000000	      0.00000000	    -15.60119096	    -85.32562156	      9.47600302	    107.09271588	     46.05058056	      0.00000000	      0.00000000
      1.46000000	     -0.67347726	      9.77084624	    -81.90911058	      0.59245259	      0.98236295	     -0.19636087	     13.13585562	     -5.87467479	    -13.10892328	     11.57126111	      0.20195660	      3.51159570	      0.00000000	      0.00000000	     17.91016615	     -4.59910837	     -1.59664455	     14.61081109	      0.25500676	      2.40660950	      0.00000000	      0.00000000	      2.57809532	     -2.61872012	     -7.71933379	    -48.42137558	    -67.98295189	    -16.32650615	    105.97223214	     46.38546737	      0.00000000	      0.00000000	    -15.35173189	    -85.10798608	      9.28577105	    106.87304285	     46.03137094	      0.00000000	      0.00000000
      1.47000000	     -0.47539605	      9.93315447	    -82.81609935	      0.59080581	      0.98177240	     -0.19312364	     12.74267515	     -5.75996873	    -13.00753813	     10.39684667	      0.18145921	      4.07792524	      0.00000000	      0.00000000	     16.71830676	     -4.61990256	     -2.40161925	     12.74698682	      0.22247689	      3.40439623	      0.00000000	      0.00000000	      3.22931085	     -2.89491226	     -6.86933220	    -49.95832992	    -68.86658358	    -15.84635481	    107.07055687	     46.42933321	      0.00000000	      0.00000000	    -16.44199446	    -86.23401391	     10.18307135	    108.27155244	     46.07150189	      0.00000000	      0.00000000
      1.48000000	     -0.81407916	     10.18321640	    -81.77952870	      0.59228448	      0.98147464	     -0.19537383	     13.35017902	     -5.73393501	    -13.17444459	     11.31323573	      0.19745321	      3.69171142	      0.00000000	      0.00000000	     18.06041816	     -4.66184628	     -1.55015276	     14.05676783	      0.24533688	      2.72179807	      0.00000000	      0.00000000	      3.25957320	     -2.61092521	     -7.79920483	    -48.84488193	    -68.32993393	    -15.71813013	    106.37494639	     46.36788713	      0.00000000	      0.00000000	    -15.86499007	    -85.43539892	      9.76517031	    107.54182278	     46.02629229	      0.00000000	      0.00000000
      1.49000000	     -0.02721932	      9.41007786	    -83.52155180	      0.58963277	      0.98264125	     -0.19252192	     11.94997062	     -5.88700275	    -11.38757751	      9.92311893	      0.17319110	      3.75974792	      0.00000000	      0.00000000	     15.49243658	     -4.37458167	     -2.89443404	     11.87166590	      0.20719966	      2.95001045	      0.00000000	      0.00000000	      2.62423788	     -3.31471092	     -6.12191225	    -50.99664476	    -69.35689600	    -16.11546065	    107.24886489	     46.49889053	      0.00000000	      0.00000000	    -16.96914849	    -86.89502195	     10.47399005	    108.75250151	     46.11468188	      0.00000000	      0.00000000
